<svg width="70" height="59" viewBox="0 0 70 59" fill="none" xmlns="http://www.w3.org/2000/svg">
<path d="M34.9995 0.714966C20.7185 0.714966 9.09961 12.288 9.09961 26.5127C9.09961 40.7374 20.7185 52.3104 34.9995 52.3104C49.2805 52.3104 60.8994 40.7374 60.8994 26.5127C60.8994 12.288 49.2805 0.714966 34.9995 0.714966ZM34.9995 2.52804C46.3426 2.52804 55.873 10.3826 58.4098 20.9166H36.892C36.4099 20.9166 35.9277 20.9166 35.4444 20.9166L35.4834 22.2767L35.5231 23.6357C35.5312 23.9214 35.3377 24.1607 35.0496 24.1694C34.7628 24.1781 34.5447 23.9533 34.5447 23.667C34.5447 23.6566 34.5447 23.6455 34.5447 23.6351L34.5698 22.2762L34.5949 20.9161C34.0993 20.9161 33.6025 20.9161 33.1064 20.9161H11.5886C14.1266 10.3826 23.6564 2.52804 34.9995 2.52804ZM35.0298 37.6484C35.5475 37.6647 35.9603 38.0828 35.9767 38.5915L36.1294 43.5778C36.1475 44.1986 35.6577 44.7172 35.0345 44.7369C34.4106 44.7555 33.8894 44.2665 33.8707 43.6451C33.8696 43.6248 33.8701 43.5981 33.8707 43.5778L34.0229 38.5915C34.0386 38.0543 34.4893 37.631 35.0298 37.6484ZM34.0894 33.6564C34.0894 33.6401 34.0894 33.6227 34.0894 33.6064L34.2841 28.6213C34.2958 28.2514 34.6269 27.9605 34.9983 27.9727C35.3557 27.9831 35.6502 28.2717 35.6612 28.6213L35.8192 33.6064C35.8332 34.06 35.4344 34.4404 34.9797 34.4526C34.5243 34.4671 34.0894 34.1099 34.0894 33.6564ZM11.3035 22.2762H30.5707C29.2122 23.0729 27.4351 24.1734 25.5466 25.4702C21.0765 28.6922 16.8004 32.2829 12.9185 36.0676C11.6358 33.1372 10.9199 29.9071 10.9199 26.5127C10.9199 25.0666 11.0557 23.6525 11.3035 22.2762ZM33.6602 50.459L33.718 48.5623C33.7401 47.8567 34.3307 47.3026 35.0391 47.3241C35.7195 47.345 36.2606 47.8933 36.2816 48.5623L36.3393 50.459C35.8962 50.4822 35.449 50.4967 35.0001 50.4967C34.55 50.4973 34.1034 50.4822 33.6602 50.459ZM57.081 36.0676C53.1986 32.2829 48.9231 28.6928 44.4523 25.4702C42.5639 24.1734 40.7873 23.0729 39.4289 22.2762H58.6955C58.9427 23.6525 59.0791 25.066 59.0791 26.5121C59.0791 29.9071 58.3631 33.1372 57.081 36.0676Z" fill="white"/>
<g clip-path="url(#clip0_148_441)">
<g clip-path="url(#clip1_148_441)">
<rect width="0" height="0" transform="translate(16.0957 -7.24904)" fill="white"/>
</g>
</g>
<path d="M26.7231 35.136L25.31 39.3053H28.1222L26.7231 35.136ZM22.4699 42.9989V42.4252L23.6451 42.2433L26.6252 33.569H27.5066L30.4867 42.2993L31.536 42.4252V42.9989H27.7304V42.4252L29.1016 42.2573L28.3321 39.9628H25.0862L24.3027 42.2433L25.6738 42.4252V42.9989H22.4699Z" fill="black"/>
<path d="M38.4164 34.2126V33.6389H42.3618V34.2126L41.0327 34.3665C41.0234 34.9634 41.014 35.565 41.0047 36.1713C41.0047 36.7682 41.0047 37.3698 41.0047 37.9761V38.8575L44.6423 34.4084L43.635 34.2126V33.6389H46.8529V34.2126L45.4958 34.3944L43.1593 37.2066L45.9855 42.2853L47.0628 42.4252V42.9989H43.4671V42.4252L44.6144 42.2853L42.3898 38.13L41.0047 39.7949C41.0047 40.168 41.0047 40.5644 41.0047 40.9842C41.014 41.4039 41.0234 41.8329 41.0327 42.2713L42.3618 42.4252V42.9989H38.4164V42.4252L39.7035 42.2713C39.7222 41.6837 39.7315 41.0868 39.7315 40.4805C39.7315 39.8742 39.7315 39.2679 39.7315 38.6617V37.9761C39.7315 37.3698 39.7315 36.7682 39.7315 36.1713C39.7315 35.565 39.7222 34.9634 39.7035 34.3665L38.4164 34.2126Z" fill="black"/>
<path d="M4.81508 32.8945L4.43049 32.9409L4.26863 31.9596L1.03079 32.3508L0.953263 31.8807L4.19111 31.4895L4.0284 30.503L4.41299 30.4565L4.81508 32.8945Z" fill="white"/>
<path d="M4.26715 35.4017C4.45305 35.4421 4.61445 35.5242 4.75133 35.6482C4.88933 35.7755 4.99379 35.9451 5.06471 36.1569L4.58679 36.2741L4.5469 36.155C4.37735 35.6486 4.01124 35.4645 3.44859 35.6025L1.93349 35.9742L1.78222 35.5225L4.56838 34.839L4.71965 35.2907L4.26715 35.4017Z" fill="white"/>
<path d="M4.35269 38.378C4.62606 38.2721 4.89299 38.2319 5.15348 38.2574C5.41722 38.2816 5.65417 38.3627 5.86432 38.5006C6.07609 38.6416 6.24152 38.8247 6.36061 39.0499C6.47806 39.2721 6.52956 39.4844 6.51513 39.687C6.5007 39.8896 6.43822 40.0607 6.32767 40.2001L6.81583 40.011L7.04094 40.4368L4.36584 41.473L4.14072 41.0472L4.63865 40.8543C4.43839 40.8316 4.24215 40.757 4.04992 40.6307C3.86258 40.5063 3.711 40.3346 3.59518 40.1155C3.4761 39.8903 3.42702 39.664 3.44793 39.4365C3.46885 39.2091 3.55734 39.002 3.71341 38.8152C3.86949 38.6283 4.08258 38.4826 4.35269 38.378ZM5.48316 40.5272C5.68493 40.4491 5.84028 40.3424 5.9492 40.2073C6.05812 40.0722 6.11656 39.9232 6.12452 39.7603C6.13737 39.5992 6.1022 39.44 6.019 39.2826C5.93581 39.1253 5.8209 38.9969 5.67429 38.8976C5.52767 38.7983 5.35912 38.739 5.16864 38.7199C4.97815 38.7007 4.78203 38.7302 4.58025 38.8084C4.37523 38.8878 4.21663 38.9957 4.10445 39.1321C3.99553 39.2672 3.93465 39.4153 3.9218 39.5764C3.91221 39.7362 3.94901 39.8948 4.0322 40.0522C4.11539 40.2095 4.2303 40.3379 4.37692 40.4372C4.52842 40.5383 4.69941 40.5985 4.88989 40.6176C5.08363 40.6355 5.28139 40.6054 5.48316 40.5272Z" fill="white"/>
<path d="M9.00601 43.1307C9.22151 43.4052 9.30379 43.6807 9.25286 43.957C9.20495 44.2316 9.00855 44.4681 8.66366 44.6664L7.19787 45.5094L6.90694 45.1388L8.31373 44.3298C8.56181 44.1871 8.70672 44.0221 8.74845 43.8347C8.79321 43.6456 8.73909 43.4536 8.58608 43.2587C8.43092 43.061 8.23894 42.9423 8.01013 42.9026C7.78348 42.8656 7.54006 42.9219 7.27988 43.0715L5.90486 43.8623L5.6107 43.4876L8.09754 42.0574L8.3917 42.4321L8.03773 42.6357C8.22298 42.6367 8.39997 42.6804 8.56868 42.7666C8.73955 42.8556 8.88532 42.977 9.00601 43.1307Z" fill="white"/>
<path d="M9.65251 48.2301C9.4904 48.0816 9.37364 47.9255 9.30222 47.7618C9.23353 47.596 9.21367 47.4375 9.24263 47.2863C9.27431 47.1329 9.35444 46.9982 9.48302 46.8822L9.84583 47.2146C9.74436 47.3134 9.70194 47.4312 9.71855 47.568C9.73774 47.7072 9.81939 47.8428 9.96348 47.9749C10.0973 48.0975 10.2341 48.1691 10.374 48.1897C10.5139 48.2103 10.6316 48.1824 10.727 48.1062C10.8251 48.0277 10.8562 47.9322 10.8202 47.8197C10.7869 47.705 10.7072 47.5502 10.5811 47.3552C10.4678 47.1765 10.3828 47.0237 10.326 46.8969C10.2746 46.7703 10.2564 46.6391 10.2716 46.5033C10.2921 46.3677 10.3746 46.2422 10.519 46.1267C10.6335 46.0351 10.7706 45.9807 10.9304 45.9634C11.0901 45.946 11.2564 45.9698 11.4293 46.0347C11.6049 46.0973 11.7686 46.1982 11.9204 46.3374C12.1546 46.5519 12.281 46.7753 12.2997 47.0076C12.3184 47.2399 12.2239 47.4479 12.0161 47.6317L11.6649 47.3099C11.7744 47.2091 11.8234 47.0926 11.8119 46.9605C11.803 46.8308 11.7304 46.7034 11.594 46.5785C11.4679 46.4629 11.339 46.3939 11.2071 46.3713C11.0752 46.3487 10.963 46.3744 10.8703 46.4485C10.7967 46.5073 10.7572 46.5764 10.7519 46.6557C10.7519 46.7352 10.7703 46.8176 10.8072 46.9029C10.8495 46.9883 10.9133 47.1006 10.9988 47.2398C11.107 47.4138 11.1869 47.5618 11.2385 47.6839C11.2928 47.8038 11.3112 47.9282 11.2936 48.0571C11.2786 48.1883 11.2042 48.3096 11.0705 48.4209C10.9478 48.519 10.8053 48.5778 10.6428 48.5973C10.4803 48.6168 10.3113 48.5952 10.1357 48.5325C9.96539 48.47 9.80432 48.3692 9.65251 48.2301Z" fill="white"/>
<path d="M14.6207 49.3253C14.8094 49.2558 15.0171 49.2322 15.2438 49.2543C15.4758 49.2758 15.695 49.3551 15.9015 49.4921C16.1137 49.633 16.2646 49.8057 16.3541 50.0101C16.4465 50.2164 16.4672 50.4352 16.4161 50.6663C16.3673 50.8949 16.2445 51.1178 16.0476 51.335C15.8531 51.5496 15.6302 51.7082 15.379 51.8106C15.1278 51.9131 14.8728 51.953 14.614 51.9303C14.3581 51.9095 14.124 51.8286 13.9118 51.6877C13.7082 51.5526 13.5643 51.3928 13.4799 51.2084C13.4008 51.0233 13.3757 50.843 13.4044 50.6674L12.1354 52.0678L11.7385 51.8043L14.5789 48.67L14.9758 48.9335L14.6207 49.3253ZM15.642 51.0657C15.7873 50.9054 15.8775 50.7416 15.9126 50.5744C15.9477 50.4072 15.9309 50.251 15.8621 50.1059C15.7962 49.9628 15.6892 49.842 15.5409 49.7436C15.3955 49.6471 15.231 49.5896 15.0474 49.5713C14.869 49.5523 14.687 49.5784 14.5012 49.6498C14.3207 49.7205 14.159 49.8347 14.0161 49.9925C13.8708 50.1528 13.7794 50.3179 13.7419 50.4877C13.7097 50.6568 13.7254 50.8143 13.7889 50.96C13.8577 51.1051 13.9648 51.2258 14.1101 51.3224C14.2584 51.4208 14.4217 51.4795 14.6001 51.4985C14.7837 51.5169 14.9658 51.4907 15.1463 51.42C15.3291 51.3467 15.4943 51.2286 15.642 51.0657Z" fill="white"/>
<path d="M18.4479 54.3373C18.2038 54.2251 18.0143 54.0713 17.8795 53.8759C17.7479 53.6821 17.6843 53.4643 17.689 53.2226C17.6986 52.9795 17.7823 52.7323 17.94 52.481C18.0959 52.2327 18.2902 52.0402 18.5231 51.9036C18.7611 51.7654 19.0115 51.692 19.2743 51.6834C19.539 51.6718 19.795 51.7229 20.0423 51.8366C20.2897 51.9503 20.4807 52.1049 20.6155 52.3002C20.7522 52.4926 20.8182 52.7096 20.8136 52.9513C20.8122 53.1944 20.7326 53.4416 20.5749 53.6928C20.4172 53.9441 20.2177 54.138 19.9766 54.2748C19.7406 54.41 19.4886 54.4826 19.2207 54.4928C18.9528 54.5029 18.6953 54.4511 18.4479 54.3373ZM18.6706 53.9826C18.826 54.0541 18.9932 54.0872 19.1722 54.0819C19.3512 54.0766 19.5246 54.025 19.6924 53.9269C19.8634 53.8303 20.0101 53.6845 20.1326 53.4894C20.255 53.2943 20.3177 53.1098 20.3206 52.9359C20.3236 52.7621 20.2788 52.612 20.1865 52.4857C20.096 52.3565 19.9731 52.2561 19.8177 52.1847C19.6592 52.1118 19.492 52.0787 19.3161 52.0854C19.1453 52.0907 18.9776 52.143 18.8129 52.2425C18.6483 52.3421 18.5048 52.4894 18.3823 52.6844C18.258 52.8825 18.1912 53.067 18.1819 53.238C18.1758 53.4104 18.2165 53.5605 18.3038 53.6882C18.393 53.8131 18.5152 53.9112 18.6706 53.9826Z" fill="white"/>
<path d="M23.9334 53.9276C24.0773 53.8013 24.2403 53.719 24.4223 53.6809C24.6076 53.6438 24.807 53.6583 25.0204 53.7244L24.8287 54.1776L24.7087 54.1404C24.1987 53.9824 23.8308 54.1702 23.6052 54.7039L22.9977 56.1407L22.5426 55.9998L23.6598 53.3575L24.1149 53.4984L23.9334 53.9276Z" fill="white"/>
<path d="M27.9291 54.8953L27.4975 56.5302C27.4619 56.6652 27.4656 56.767 27.5087 56.8356C27.5527 56.9009 27.6467 56.9474 27.7906 56.9753L28.135 57.0419L28.0321 57.4316L27.6106 57.3501C27.3502 57.2997 27.1705 57.2029 27.0715 57.0596C26.9724 56.9163 26.9586 56.7097 27.0298 56.4398L27.4614 54.8049L27.0965 54.7343L27.1967 54.3547L27.5616 54.4252L27.746 53.7267L28.2137 53.8172L28.0293 54.5157L28.7643 54.6578L28.6641 55.0375L27.9291 54.8953Z" fill="white"/>
<path d="M33.86 56.5321C33.8519 56.6225 33.8381 56.7177 33.8186 56.8178L31.5306 56.668C31.5229 56.9507 31.5989 57.1777 31.7587 57.349C31.9223 57.517 32.1295 57.6093 32.3803 57.6257C32.5857 57.6392 32.7606 57.6034 32.9048 57.5185C33.0528 57.4303 33.1618 57.308 33.2318 57.1518L33.7437 57.1853C33.6426 57.4549 33.4693 57.6691 33.2239 57.8278C32.9788 57.9831 32.6856 58.0496 32.3444 58.0272C32.0727 58.0094 31.8344 57.9326 31.6293 57.7968C31.4278 57.6612 31.276 57.4782 31.174 57.2477C31.0723 57.0138 31.0347 56.7491 31.0611 56.4536C31.0875 56.1582 31.1699 55.9031 31.3082 55.6884C31.4465 55.4736 31.6272 55.3142 31.8502 55.2099C32.077 55.1024 32.3297 55.0577 32.6083 55.076C32.8799 55.0938 33.1149 55.1686 33.3133 55.3005C33.5117 55.4324 33.6573 55.6062 33.75 55.8221C33.8466 56.0347 33.8833 56.2714 33.86 56.5321ZM33.3778 56.4009C33.3939 56.2201 33.3677 56.0628 33.2991 55.9289C33.2308 55.7916 33.13 55.6853 32.9966 55.6102C32.867 55.5317 32.7186 55.4871 32.5515 55.4761C32.3112 55.4604 32.0989 55.5234 31.9145 55.6651C31.7337 55.8071 31.619 56.0129 31.5703 56.2825L33.3778 56.4009Z" fill="white"/>
<path d="M40.3958 56.2504C40.3278 55.9652 40.3267 55.7055 40.3926 55.4712C40.4576 55.2335 40.5774 55.0375 40.7519 54.8833C40.9299 54.7284 41.146 54.6287 41.4004 54.5843C41.6205 54.5458 41.8372 54.561 42.0505 54.6298C42.2631 54.6952 42.4387 54.8007 42.5772 54.9462L42.225 53.4695L42.6994 53.3866L43.5982 57.1548L43.1238 57.2377L42.9987 56.7132C42.9455 56.8958 42.8408 57.0573 42.6845 57.1977C42.5274 57.3348 42.3268 57.4247 42.0827 57.4673C41.8318 57.5112 41.5886 57.49 41.3531 57.4039C41.1212 57.3171 40.9204 57.1736 40.7509 56.9734C40.5814 56.7731 40.463 56.5321 40.3958 56.2504ZM42.7898 55.8373C42.7396 55.6269 42.6529 55.4511 42.5297 55.3099C42.4065 55.1688 42.2613 55.0704 42.094 55.0148C41.9294 54.9551 41.7594 54.9406 41.584 54.9713C41.4087 55.0019 41.2586 55.0706 41.1336 55.1773C41.0086 55.284 40.9218 55.4229 40.8731 55.5941C40.8244 55.7653 40.8252 55.9561 40.8754 56.1666C40.9264 56.3804 41.0139 56.5596 41.1379 56.7042C41.2611 56.8453 41.405 56.9457 41.5696 57.0053C41.7335 57.0616 41.903 57.0744 42.0784 57.0438C42.2537 57.0131 42.4039 56.9444 42.5288 56.8377C42.6564 56.727 42.7445 56.5861 42.7932 56.4149C42.8411 56.2403 42.84 56.0478 42.7898 55.8373Z" fill="white"/>
<path d="M48.4272 54.0588C48.4645 54.1415 48.4989 54.2307 48.5305 54.3262L46.3532 55.0449C46.4858 55.2972 46.668 55.4692 46.8997 55.5608C47.1332 55.6482 47.3693 55.6526 47.6079 55.5738C47.8034 55.5093 47.9465 55.4127 48.037 55.2841C48.1294 55.1513 48.1692 55.0029 48.1563 54.839L48.6434 54.6782C48.6838 54.9537 48.6304 55.2071 48.4834 55.4383C48.3349 55.6665 48.0983 55.8341 47.7735 55.9413C47.515 56.0266 47.2579 56.0475 47.0022 56.004C46.7499 55.9593 46.5199 55.8543 46.3121 55.689C46.1029 55.5204 45.9374 55.3009 45.8156 55.0305C45.6937 54.76 45.6432 54.5044 45.6642 54.2635C45.6851 54.0227 45.7723 53.8148 45.9257 53.6399C46.081 53.4607 46.2912 53.3274 46.5563 53.2398C46.8148 53.1545 47.0679 53.1331 47.3155 53.1757C47.5631 53.2182 47.7829 53.3175 47.975 53.4734C48.1689 53.625 48.3197 53.8202 48.4272 54.0588ZM47.919 54.1224C47.8445 53.9569 47.7426 53.8279 47.6133 53.7353C47.4826 53.6396 47.3373 53.5833 47.1775 53.5666C47.0196 53.5456 46.8611 53.5614 46.702 53.6139C46.4734 53.6894 46.3094 53.8239 46.2101 54.0175C46.1141 54.2101 46.1104 54.4342 46.199 54.6901L47.919 54.1224Z" fill="white"/>
<path d="M54.0207 51.3121C53.8247 51.0895 53.7039 50.8635 53.6583 50.6342C53.6104 50.4022 53.6341 50.1836 53.7293 49.9785C53.8275 49.7714 53.991 49.5941 54.2197 49.4465C54.5159 49.2554 54.8159 49.1626 55.1195 49.168C55.4261 49.1714 55.7105 49.2673 55.9727 49.4554L55.5416 49.7335C55.3852 49.629 55.2135 49.5776 55.0263 49.5792C54.8422 49.5789 54.6621 49.6355 54.4861 49.749C54.2574 49.8966 54.1349 50.0865 54.1186 50.3188C54.1001 50.5484 54.2038 50.7915 54.4299 51.0482C54.6582 51.3076 54.905 51.4625 55.1703 51.5132C55.4356 51.5638 55.6827 51.5153 55.9114 51.3678C56.0874 51.2543 56.2017 51.123 56.2545 50.974C56.3072 50.825 56.2956 50.6682 56.2197 50.5036L56.6508 50.2255C56.78 50.4871 56.8066 50.7472 56.7307 51.0056C56.6524 51.2615 56.4682 51.483 56.1778 51.6703C55.9491 51.8179 55.7049 51.9035 55.4452 51.9272C55.1886 51.9491 54.9366 51.9083 54.6892 51.805C54.4419 51.7017 54.2191 51.5374 54.0207 51.3121Z" fill="white"/>
<path d="M58.2293 48.2063C58.0016 48.0217 57.8463 47.8203 57.7636 47.6023C57.6781 47.3821 57.6643 47.1645 57.7222 46.9495C57.7827 46.7322 57.9075 46.5381 58.0965 46.3673C58.2829 46.1989 58.4868 46.0867 58.7081 46.0308C58.9294 45.9749 59.1374 45.9682 59.3321 46.0107L58.9255 45.681L59.2828 45.3581L61.5112 47.1648L61.1539 47.4877L60.7391 47.1514C60.7993 47.3201 60.8029 47.5027 60.7498 47.6994C60.6966 47.8916 60.5781 48.0707 60.3942 48.2368C60.2052 48.4077 59.9855 48.5225 59.7351 48.5814C59.4848 48.6404 59.2274 48.6382 58.9632 48.5749C58.6989 48.5116 58.4543 48.3887 58.2293 48.2063ZM60.0356 46.581C59.8675 46.4448 59.6888 46.3553 59.4993 46.3127C59.3099 46.2701 59.127 46.2727 58.9506 46.3206C58.774 46.3639 58.6197 46.4453 58.4877 46.5646C58.3556 46.6839 58.2677 46.8191 58.224 46.9701C58.1803 47.1212 58.1885 47.2765 58.2485 47.4361C58.3084 47.5957 58.4224 47.7436 58.5905 47.8799C58.7613 48.0183 58.9428 48.11 59.1349 48.1548C59.3244 48.1974 59.5074 48.197 59.6839 48.1537C59.8577 48.1082 60.0106 48.0257 60.1427 47.9064C60.2748 47.7871 60.3626 47.6519 60.4063 47.5009C60.4499 47.3453 60.4417 47.1877 60.3817 47.0281C60.3191 46.8663 60.2037 46.7173 60.0356 46.581Z" fill="white"/>
<path d="M61.3575 43.5644C61.27 43.4151 61.2362 43.2578 61.2558 43.0923C61.2777 42.9241 61.3595 42.7538 61.5012 42.5811L61.9229 42.8347L61.8432 42.9318C61.5044 43.3445 61.5833 43.7002 62.0798 43.9988L63.4167 44.8027L63.1144 45.1709L60.6559 43.6925L60.9582 43.3243L61.3575 43.5644Z" fill="white"/>
<path d="M63.2816 39.7956C63.4073 39.582 63.5667 39.4169 63.7599 39.3004C63.9548 39.1808 64.1506 39.1144 64.3473 39.1011L63.8666 38.8938L64.1109 38.4788L66.8029 39.6395C67.0432 39.7431 67.228 39.8831 67.3573 40.0595C67.4897 40.2373 67.5557 40.4392 67.5553 40.6652C67.5566 40.8883 67.4873 41.1186 67.3475 41.3562C67.1563 41.6811 66.9153 41.9165 66.6244 42.0626C66.3335 42.2087 66.0355 42.2405 65.7305 42.158L65.9694 41.752C66.1562 41.776 66.3393 41.738 66.5186 41.6381C66.7012 41.5395 66.8509 41.391 66.9677 41.1925C67.1005 40.9669 67.1331 40.751 67.0657 40.5447C67 40.3354 66.831 40.172 66.5586 40.0545L66.0058 39.8162C66.1118 39.9637 66.1692 40.1393 66.1779 40.3429C66.1867 40.5465 66.1282 40.7551 66.0025 40.9687C65.8733 41.1882 65.6979 41.3634 65.4763 41.4941C65.2565 41.6218 65.0123 41.6919 64.7439 41.7044C64.4754 41.7168 64.2081 41.6657 63.9421 41.551C63.6729 41.4349 63.4674 41.2822 63.3257 41.0929C63.1808 40.9022 63.1045 40.694 63.0967 40.4681C63.0908 40.2393 63.1524 40.0151 63.2816 39.7956ZM65.1789 39.4597C64.9802 39.374 64.7851 39.337 64.5934 39.3486C64.4017 39.3603 64.2294 39.4142 64.0763 39.5103C63.9219 39.6021 63.7995 39.7247 63.7092 39.8781C63.6189 40.0315 63.5751 40.1879 63.5776 40.3474C63.5802 40.5069 63.6331 40.656 63.7362 40.7948C63.8394 40.9335 63.9903 41.0457 64.189 41.1314C64.3909 41.2185 64.5893 41.2569 64.7842 41.2466C64.9759 41.235 65.149 41.1833 65.3034 41.0915C65.4547 40.9983 65.5755 40.8751 65.6657 40.7217C65.756 40.5683 65.7999 40.4118 65.7973 40.2523C65.7933 40.0885 65.7397 39.9371 65.6365 39.7984C65.5302 39.6582 65.3776 39.5453 65.1789 39.4597Z" fill="white"/>
<path d="M66.145 37.2308C65.8616 37.1557 65.6338 37.0343 65.4616 36.8664C65.286 36.6977 65.1741 36.5008 65.126 36.2759C65.0791 36.0477 65.0989 35.8138 65.1855 35.5742C65.2709 35.3379 65.3973 35.1466 65.5648 35.0003C65.7322 34.8541 65.9107 34.7592 66.1001 34.7159L65.594 34.5819L65.7577 34.129L68.5309 34.8631L68.3672 35.3161L67.8511 35.1794C67.981 35.3109 68.0679 35.4796 68.1118 35.6854C68.1535 35.887 68.1323 36.1044 68.0481 36.3374C67.9615 36.577 67.8225 36.7776 67.631 36.9391C67.4396 37.1006 67.2141 37.2081 66.9545 37.2616C66.6948 37.3152 66.425 37.3049 66.145 37.2308ZM66.9756 34.9477C66.7664 34.8923 66.5694 34.8851 66.3845 34.926C66.1997 34.967 66.0413 35.0474 65.9093 35.1671C65.7752 35.2826 65.6778 35.424 65.6173 35.5914C65.5568 35.7588 65.5422 35.9222 65.5733 36.0815C65.6045 36.2408 65.6828 36.382 65.8084 36.5051C65.9339 36.6283 66.1013 36.7175 66.3105 36.7729C66.523 36.8292 66.7234 36.8373 66.9116 36.7972C67.0964 36.7562 67.2559 36.678 67.3901 36.5624C67.5209 36.446 67.6165 36.3041 67.677 36.1367C67.7375 35.9693 67.7522 35.806 67.721 35.6467C67.6877 35.4832 67.6082 35.3399 67.4827 35.2168C67.3538 35.0927 67.1847 35.003 66.9756 34.9477Z" fill="white"/>
<path d="M69.1713 31.6715C69.1355 31.8885 69.0671 32.0786 68.9659 32.242C68.8613 32.405 68.7349 32.5284 68.5868 32.6124C68.4352 32.6959 68.2719 32.7324 68.097 32.7218L68.1771 32.2362C68.3214 32.2396 68.4482 32.1882 68.5576 32.082C68.6676 31.9724 68.7385 31.8212 68.7703 31.6283C68.7998 31.4493 68.7833 31.3033 68.7206 31.1903C68.658 31.0774 68.566 31.0136 68.4447 30.999C68.32 30.9839 68.2191 31.0279 68.142 31.131C68.0615 31.2336 67.9727 31.3967 67.8758 31.6203C67.7857 31.8237 67.7019 31.9892 67.6243 32.1168C67.5438 32.2405 67.4402 32.3439 67.3134 32.4269C67.1837 32.5061 67.0271 32.5345 66.8434 32.5124C66.6979 32.4948 66.5716 32.4356 66.4645 32.3349C66.3575 32.2341 66.2824 32.1004 66.2392 31.9336C66.1926 31.7664 66.186 31.5812 66.2195 31.3781C66.2712 31.0647 66.3926 30.8212 66.5838 30.6477C66.775 30.4741 67.0103 30.3972 67.2898 30.4169L67.2122 30.8869C67.0615 30.8792 66.9321 30.9251 66.8238 31.0244C66.7161 31.1202 66.6472 31.2594 66.6171 31.4419C66.5893 31.6106 66.6035 31.7493 66.6598 31.858C66.7161 31.9666 66.8032 32.0281 66.921 32.0423C67.0145 32.0536 67.0973 32.0338 67.1693 31.9828C67.2384 31.9279 67.2994 31.858 67.3523 31.7731C67.4023 31.6843 67.4632 31.5617 67.5349 31.4053C67.6238 31.2088 67.7065 31.0502 67.783 30.9295C67.856 30.8084 67.9536 30.7096 68.0757 30.633C68.1985 30.553 68.3467 30.5218 68.5206 30.5393C68.6765 30.5581 68.8097 30.6181 68.9202 30.7193C69.0308 30.8204 69.1093 30.9546 69.156 31.1218C69.1997 31.2851 69.2048 31.4684 69.1713 31.6715Z" fill="white"/>
<defs>
<clipPath id="clip0_148_441">
<rect width="34.1455" height="15.1159" fill="white" transform="translate(17.9932 4.08769)"/>
</clipPath>
<clipPath id="clip1_148_441">
<rect width="0" height="0" fill="white" transform="translate(16.0957 -7.24904)"/>
</clipPath>
</defs>
</svg>
