<svg width="118" height="32" viewBox="0 0 118 32" fill="none" xmlns="http://www.w3.org/2000/svg">
<g clip-path="url(#clip0_123_295)">
<path d="M11.7755 5.63379C5.28255 5.63379 0 10.9081 0 17.3909C0 23.8737 5.28255 29.148 11.7755 29.148C18.2684 29.148 23.5509 23.8737 23.5509 17.3909C23.5509 10.9081 18.2684 5.63379 11.7755 5.63379ZM11.7755 6.46008C16.9326 6.46008 21.2657 10.0397 22.419 14.8405H12.6359C12.4167 14.8405 12.1975 14.8405 11.9777 14.8405L11.9955 15.4604L12.0135 16.0797C12.0172 16.2099 11.9292 16.319 11.7983 16.3229C11.6678 16.3269 11.5687 16.2245 11.5687 16.094C11.5687 16.0892 11.5687 16.0842 11.5687 16.0794L11.5801 15.4601L11.5915 14.8403C11.3662 14.8403 11.1403 14.8403 10.9147 14.8403H1.13163C2.28554 10.0397 6.6183 6.46008 11.7755 6.46008ZM11.7893 22.4659C12.0246 22.4733 12.2123 22.6639 12.2197 22.8957L12.2892 25.1681C12.2974 25.4511 12.0747 25.6874 11.7914 25.6964C11.5077 25.7049 11.2708 25.482 11.2623 25.1989C11.2617 25.1896 11.262 25.1774 11.2623 25.1681L11.3315 22.8957C11.3386 22.6509 11.5435 22.4579 11.7893 22.4659ZM11.3617 20.6466C11.3617 20.6391 11.3617 20.6312 11.3617 20.6238L11.4502 18.3519C11.4555 18.1833 11.6061 18.0507 11.7749 18.0563C11.9374 18.061 12.0713 18.1926 12.0763 18.3519L12.1482 20.6238C12.1545 20.8305 11.9732 21.0039 11.7665 21.0094C11.5594 21.016 11.3617 20.8533 11.3617 20.6466ZM1.00201 15.4601H9.76191C9.14426 15.8232 8.3363 16.3248 7.47769 16.9158C5.44531 18.3842 3.5012 20.0206 1.73629 21.7455C1.15311 20.4099 0.827586 18.9379 0.827586 17.3909C0.827586 16.7319 0.88935 16.0874 1.00201 15.4601ZM11.1666 28.3042L11.1928 27.4398C11.2029 27.1182 11.4714 26.8657 11.7935 26.8755C12.1028 26.8851 12.3488 27.1349 12.3584 27.4398L12.3846 28.3042C12.1832 28.3148 11.9798 28.3214 11.7757 28.3214C11.5711 28.3217 11.368 28.3148 11.1666 28.3042ZM21.8149 21.7455C20.0497 20.0206 18.1059 18.3844 16.0732 16.9158C15.2146 16.3248 14.4069 15.8232 13.7893 15.4601H22.5489C22.6613 16.0874 22.7233 16.7316 22.7233 17.3906C22.7233 18.9379 22.3978 20.4099 21.8149 21.7455Z" fill="#09031F"/>
<g clip-path="url(#clip1_123_295)">
<g clip-path="url(#clip2_123_295)">
<rect width="0" height="0" transform="translate(3.1792 2.00415)" fill="#09031F"/>
</g>
</g>
<path d="M41.1079 20H39.4479L37.7313 15.6142H32.2043L30.5065 20H28.8843L34.3359 6.1541H35.6846L41.1079 20ZM37.2314 14.1711L35.628 9.89853C35.4142 9.34519 35.2004 8.68182 34.9867 7.90841C34.8483 8.49947 34.6503 9.16284 34.3925 9.89853L32.7702 14.1711H37.2314ZM42.6359 6.86148C42.6359 6.51565 42.7207 6.25785 42.8905 6.08807C43.0603 5.91201 43.2804 5.82398 43.5507 5.82398C43.8211 5.82398 44.0443 5.91201 44.2204 6.08807C44.3965 6.26413 44.4845 6.52194 44.4845 6.86148C44.4845 7.20103 44.3965 7.46197 44.2204 7.64432C44.0443 7.82038 43.8211 7.90841 43.5507 7.90841C43.2804 7.90841 43.0603 7.82038 42.8905 7.64432C42.7207 7.46197 42.6359 7.20103 42.6359 6.86148ZM44.3336 20H42.7679V9.66273H44.3336V20ZM52.3695 9.47409C52.8222 9.47409 53.2341 9.51182 53.6051 9.58728L53.3881 11.0398C52.9606 10.9455 52.5833 10.8983 52.2563 10.8983C51.4137 10.8983 50.6969 11.2378 50.1059 11.9169C49.5148 12.5897 49.2193 13.4355 49.2193 14.4541V20H47.6536V9.66273H48.9457L49.125 11.5774H49.2004C49.584 10.8983 50.0461 10.3795 50.5869 10.0211C51.1339 9.65644 51.7281 9.47409 52.3695 9.47409Z" fill="#321E80"/>
<path d="M76.8699 10.3798C77.9515 9.78873 79.1147 9.4932 80.3597 9.4932C81.6047 9.4932 82.5196 9.76987 83.1044 10.3232C83.6954 10.8702 83.991 11.7443 83.991 12.9452V20.0002H82.8403L82.529 18.5289H82.4536C81.938 19.1765 81.4224 19.6167 80.9068 19.8493C80.3974 20.0757 79.7592 20.1889 78.9921 20.1889C77.9672 20.1889 77.1623 19.9248 76.5776 19.3966C75.9928 18.8621 75.7004 18.1107 75.7004 17.1424C75.7004 15.0611 77.373 13.967 80.7181 13.8601L82.4724 13.8035V13.1622C82.4724 12.3448 82.2964 11.7474 81.9443 11.3701C81.5984 10.9866 81.0137 10.7948 80.1899 10.7948C79.3662 10.7948 78.4199 11.0557 77.351 11.5776L76.8699 10.3798ZM77.351 17.1613C77.351 17.7209 77.5207 18.1516 77.8603 18.4534C78.1998 18.749 78.6809 18.8967 79.3034 18.8967C80.278 18.8967 81.042 18.6295 81.5953 18.095C82.1549 17.5543 82.4347 16.806 82.4347 15.8502V14.9165L80.869 14.9825C79.624 15.0265 78.7249 15.2215 78.1715 15.5673C77.6245 15.9068 77.351 16.4382 77.351 17.1613ZM91.9514 9.47434C92.4041 9.47434 92.816 9.51207 93.187 9.58752L92.9701 11.04C92.5425 10.9457 92.1652 10.8985 91.8382 10.8985C90.9957 10.8985 90.2788 11.2381 89.6878 11.9172C89.0967 12.59 88.8012 13.4357 88.8012 14.4543V20.0002H87.2355V9.66298H88.5277L88.7069 11.5776H88.7823C89.1659 10.8985 89.628 10.3798 90.1688 10.0214C90.7159 9.65669 91.3101 9.47434 91.9514 9.47434ZM98.1387 18.3591H99.9685C101.088 18.3591 101.946 18.5949 102.543 19.0665C103.147 19.5381 103.449 20.2235 103.449 21.1226C103.449 22.267 102.99 23.1379 102.072 23.7352C101.154 24.3389 99.8144 24.6407 98.0538 24.6407C96.7019 24.6407 95.6581 24.3892 94.9224 23.8862C94.193 23.3831 93.8283 22.6726 93.8283 21.7546C93.8283 21.1258 94.0296 20.5819 94.432 20.1229C94.8407 19.6638 95.4066 19.3526 96.1297 19.1891C95.853 19.0634 95.6267 18.8747 95.4506 18.6232C95.2808 18.3717 95.196 18.073 95.196 17.7272C95.196 17.3751 95.2934 17.0575 95.4883 16.7746C95.6896 16.4853 96.0102 16.2087 96.4504 15.9446C95.9222 15.7308 95.4852 15.3566 95.1394 14.8222C94.8061 14.2877 94.6395 13.6841 94.6395 13.0113C94.6395 11.8857 94.979 11.0149 95.6581 10.3987C96.3372 9.78244 97.2993 9.47434 98.5443 9.47434C99.0724 9.47434 99.5597 9.53722 100.006 9.66298H103.581V10.6627L101.666 10.8797C102.119 11.4519 102.345 12.1404 102.345 12.9452C102.345 13.9576 101.999 14.7656 101.308 15.3692C100.616 15.9729 99.6666 16.2747 98.4594 16.2747C98.1701 16.2747 97.8809 16.2495 97.5916 16.1992C96.9251 16.5451 96.5919 16.9884 96.5919 17.5291C96.5919 17.8184 96.7113 18.029 96.9503 18.161C97.1892 18.2931 97.5854 18.3591 98.1387 18.3591ZM98.4782 10.625C97.7363 10.625 97.1672 10.8231 96.7711 11.2192C96.3812 11.6154 96.1863 12.1876 96.1863 12.9358C96.1863 13.6778 96.3875 14.2374 96.7899 14.6147C97.1987 14.9857 97.7708 15.1712 98.5065 15.1712C100.034 15.1712 100.798 14.4292 100.798 12.9452C100.798 11.3984 100.025 10.625 98.4782 10.625ZM99.4686 19.7644H97.5916C96.8748 19.7644 96.3183 19.9342 95.9222 20.2738C95.5324 20.6133 95.3374 21.0818 95.3374 21.6791C95.3374 22.8549 96.2492 23.4429 98.0727 23.4429C99.3617 23.4429 100.327 23.2511 100.968 22.8675C101.616 22.484 101.94 21.9463 101.94 21.2547C101.94 20.6888 101.767 20.2989 101.421 20.0851C101.075 19.8713 100.424 19.7644 99.4686 19.7644Z" fill="#100636"/>
<path d="M105.174 14.9855C105.174 13.3004 105.592 11.9893 106.428 11.0524C107.271 10.1093 108.428 9.63767 109.899 9.63767C111.377 9.63767 112.537 10.1187 113.38 11.0807C114.241 12.0365 114.672 13.3475 114.672 15.0138C114.672 16.6801 114.247 17.988 113.398 18.9374C112.55 19.8806 111.377 20.3522 109.88 20.3522C109.855 20.3522 109.83 20.3522 109.805 20.3522C108.44 20.3522 107.327 19.868 106.466 18.8997C105.605 17.9314 105.174 16.6707 105.174 15.1176C105.174 15.0735 105.174 15.0295 105.174 14.9855ZM109.899 10.977C107.83 10.977 106.796 12.3132 106.796 14.9855C106.796 16.306 107.06 17.312 107.588 18.0037C108.123 18.6954 108.899 19.0412 109.918 19.0412C110.943 19.0412 111.72 18.6985 112.248 18.0131C112.782 17.3215 113.049 16.3154 113.049 14.9949C113.049 13.6745 112.782 12.6747 112.248 11.9956C111.72 11.3165 110.937 10.977 109.899 10.977Z" fill="#100636"/>
<path d="M56.1723 2.5913V1.37514H64.5371V2.5913L61.7192 2.91758C61.6994 4.18317 61.6796 5.45865 61.6599 6.74402C61.6599 8.00961 61.6599 9.28509 61.6599 10.5705V12.4392L69.3721 3.00657L67.2364 2.5913V1.37514H74.0587V2.5913L71.1815 2.97691L66.2279 8.93903L72.2197 19.7065L74.5037 20.0031V21.2192H66.8804V20.0031L69.3127 19.7065L64.5964 10.8967L61.6599 14.4266C61.6599 15.2176 61.6599 16.058 61.6599 16.9479C61.6796 17.8377 61.6994 18.7474 61.7192 19.6768L64.5371 20.0031V21.2192H56.1723V20.0031L58.9013 19.6768C58.9408 18.431 58.9606 17.1654 58.9606 15.88C58.9606 14.5947 58.9606 13.3093 58.9606 12.0239V10.5705C58.9606 9.28509 58.9606 8.00961 58.9606 6.74402C58.9606 5.45865 58.9408 4.18317 58.9013 2.91758L56.1723 2.5913Z" fill="#100636"/>
<path d="M31.6531 25.2951V25.7067H30.5964V29.1716H30.0902V25.7067H29.028V25.2951H31.6531ZM32.7822 26.6188C32.8712 26.4446 32.9972 26.3092 33.1604 26.2128C33.3272 26.1164 33.5293 26.0682 33.7666 26.0682V26.591H33.6331C33.0658 26.591 32.7822 26.8988 32.7822 27.5142V29.1716H32.2761V26.1238H32.7822V26.6188ZM34.1617 27.6366C34.1617 27.3252 34.2248 27.0526 34.3508 26.819C34.4769 26.5817 34.6493 26.3982 34.8681 26.2684C35.0906 26.1387 35.3371 26.0738 35.6078 26.0738C35.8747 26.0738 36.1065 26.1312 36.303 26.2462C36.4995 26.3611 36.646 26.5057 36.7424 26.68V26.1238H37.254V29.1716H36.7424V28.6043C36.6423 28.7823 36.4921 28.9306 36.2919 29.0493C36.0954 29.1642 35.8655 29.2217 35.6022 29.2217C35.3316 29.2217 35.0868 29.1549 34.8681 29.0215C34.6493 28.888 34.4769 28.7007 34.3508 28.4597C34.2248 28.2187 34.1617 27.9444 34.1617 27.6366ZM36.7424 27.6422C36.7424 27.4123 36.696 27.2121 36.6033 27.0415C36.5106 26.8709 36.3846 26.7412 36.2251 26.6522C36.0694 26.5595 35.897 26.5131 35.7079 26.5131C35.5188 26.5131 35.3464 26.5576 35.1907 26.6466C35.0349 26.7356 34.9107 26.8654 34.818 27.0359C34.7253 27.2065 34.679 27.4067 34.679 27.6366C34.679 27.8702 34.7253 28.0741 34.818 28.2484C34.9107 28.4189 35.0349 28.5506 35.1907 28.6433C35.3464 28.7323 35.5188 28.7768 35.7079 28.7768C35.897 28.7768 36.0694 28.7323 36.2251 28.6433C36.3846 28.5506 36.5106 28.4189 36.6033 28.2484C36.696 28.0741 36.7424 27.8721 36.7424 27.6422ZM39.5943 26.0682C39.9651 26.0682 40.2654 26.1813 40.4953 26.4075C40.7252 26.6299 40.8401 26.9525 40.8401 27.3752V29.1716H40.3396V27.4475C40.3396 27.1435 40.2636 26.9117 40.1115 26.7523C39.9595 26.5892 39.7519 26.5076 39.4886 26.5076C39.2217 26.5076 39.0085 26.591 38.849 26.7579C38.6933 26.9247 38.6154 27.1676 38.6154 27.4864V29.1716H38.1093V26.1238H38.6154V26.5576C38.7156 26.4019 38.8509 26.2814 39.0214 26.1961C39.1957 26.1108 39.3867 26.0682 39.5943 26.0682ZM42.7458 29.2217C42.5122 29.2217 42.3027 29.1828 42.1174 29.1049C41.932 29.0233 41.7855 28.9121 41.678 28.7712C41.5705 28.6266 41.5111 28.4616 41.5 28.2762H42.0228C42.0376 28.4282 42.1081 28.5524 42.2341 28.6488C42.3639 28.7452 42.5326 28.7934 42.7403 28.7934C42.9331 28.7934 43.0851 28.7508 43.1963 28.6655C43.3076 28.5802 43.3632 28.4727 43.3632 28.3429C43.3632 28.2095 43.3038 28.1112 43.1852 28.0482C43.0665 27.9814 42.883 27.9165 42.6346 27.8535C42.4084 27.7942 42.223 27.7349 42.0784 27.6755C41.9375 27.6125 41.8152 27.5217 41.7113 27.403C41.6112 27.2807 41.5612 27.1212 41.5612 26.9247C41.5612 26.769 41.6075 26.6262 41.7002 26.4965C41.7929 26.3667 41.9245 26.2647 42.0951 26.1906C42.2657 26.1127 42.4603 26.0738 42.6791 26.0738C43.0165 26.0738 43.289 26.1591 43.4966 26.3296C43.7043 26.5002 43.8155 26.7338 43.8303 27.0304H43.3242C43.3131 26.8709 43.2482 26.743 43.1296 26.6466C43.0146 26.5502 42.8589 26.502 42.6624 26.502C42.4807 26.502 42.3361 26.541 42.2286 26.6188C42.1211 26.6967 42.0673 26.7986 42.0673 26.9247C42.0673 27.0248 42.0988 27.1082 42.1618 27.175C42.2286 27.238 42.3102 27.2899 42.4066 27.3307C42.5067 27.3678 42.6439 27.4104 42.8181 27.4586C43.0369 27.518 43.2149 27.5773 43.352 27.6366C43.4892 27.6922 43.606 27.7775 43.7024 27.8924C43.8025 28.0074 43.8545 28.1575 43.8582 28.3429C43.8582 28.5098 43.8118 28.66 43.7191 28.7934C43.6264 28.9269 43.4948 29.0326 43.3242 29.1105C43.1574 29.1846 42.9646 29.2217 42.7458 29.2217ZM45.0787 26.6856C45.1788 26.5113 45.3272 26.3667 45.5237 26.2517C45.7239 26.1331 45.9556 26.0738 46.2189 26.0738C46.4895 26.0738 46.7343 26.1387 46.953 26.2684C47.1755 26.3982 47.3498 26.5817 47.4758 26.819C47.6019 27.0526 47.6649 27.3252 47.6649 27.6366C47.6649 27.9444 47.6019 28.2187 47.4758 28.4597C47.3498 28.7007 47.1755 28.888 46.953 29.0215C46.7343 29.1549 46.4895 29.2217 46.2189 29.2217C45.9593 29.2217 45.7294 29.1642 45.5292 29.0493C45.3327 28.9306 45.1825 28.7842 45.0787 28.6099V30.6177H44.5726V26.1238H45.0787V26.6856ZM47.1477 27.6366C47.1477 27.4067 47.1013 27.2065 47.0086 27.0359C46.9159 26.8654 46.7899 26.7356 46.6304 26.6466C46.4747 26.5576 46.3023 26.5131 46.1132 26.5131C45.9278 26.5131 45.7554 26.5595 45.596 26.6522C45.4402 26.7412 45.3142 26.8728 45.2178 27.0471C45.1251 27.2176 45.0787 27.416 45.0787 27.6422C45.0787 27.8721 45.1251 28.0741 45.2178 28.2484C45.3142 28.4189 45.4402 28.5506 45.596 28.6433C45.7554 28.7323 45.9278 28.7768 46.1132 28.7768C46.3023 28.7768 46.4747 28.7323 46.6304 28.6433C46.7899 28.5506 46.9159 28.4189 47.0086 28.2484C47.1013 28.0741 47.1477 27.8702 47.1477 27.6366ZM49.6603 29.2217C49.3748 29.2217 49.1153 29.1568 48.8817 29.027C48.6518 28.8973 48.4701 28.7137 48.3367 28.4764C48.2069 28.2354 48.142 27.9573 48.142 27.6422C48.142 27.3307 48.2087 27.0563 48.3422 26.819C48.4794 26.578 48.6648 26.3945 48.8984 26.2684C49.132 26.1387 49.3934 26.0738 49.6826 26.0738C49.9718 26.0738 50.2332 26.1387 50.4668 26.2684C50.7004 26.3945 50.8839 26.5762 51.0174 26.8135C51.1546 27.0508 51.2232 27.327 51.2232 27.6422C51.2232 27.9573 51.1527 28.2354 51.0118 28.4764C50.8746 28.7137 50.6874 28.8973 50.4501 29.027C50.2128 29.1568 49.9496 29.2217 49.6603 29.2217ZM49.6603 28.7768C49.842 28.7768 50.0126 28.7341 50.172 28.6488C50.3315 28.5636 50.4594 28.4356 50.5558 28.2651C50.6559 28.0945 50.7059 27.8869 50.7059 27.6422C50.7059 27.3975 50.6577 27.1898 50.5613 27.0193C50.4649 26.8487 50.3389 26.7226 50.1831 26.6411C50.0274 26.5558 49.8587 26.5131 49.677 26.5131C49.4916 26.5131 49.3211 26.5558 49.1654 26.6411C49.0133 26.7226 48.891 26.8487 48.7983 27.0193C48.7056 27.1898 48.6592 27.3975 48.6592 27.6422C48.6592 27.8906 48.7037 28.1001 48.7927 28.2706C48.8854 28.4412 49.0078 28.5691 49.1598 28.6544C49.3118 28.736 49.4787 28.7768 49.6603 28.7768ZM52.3947 26.6188C52.4837 26.4446 52.6098 26.3092 52.7729 26.2128C52.9398 26.1164 53.1419 26.0682 53.3792 26.0682V26.591H53.2457C52.6784 26.591 52.3947 26.8988 52.3947 27.5142V29.1716H51.8886V26.1238H52.3947V26.6188ZM54.5807 26.541V28.3374C54.5807 28.4857 54.6123 28.5914 54.6753 28.6544C54.7383 28.7137 54.8477 28.7434 55.0034 28.7434H55.3761V29.1716H54.92C54.6382 29.1716 54.4269 29.1067 54.286 28.977C54.1451 28.8472 54.0746 28.634 54.0746 28.3374V26.541H53.6797V26.1238H54.0746V25.3563H54.5807V26.1238H55.3761V26.541H54.5807ZM58.7701 27.5309C58.7701 27.6273 58.7646 27.7293 58.7534 27.8368H56.3174C56.336 28.1372 56.4379 28.3726 56.6233 28.5432C56.8124 28.71 57.0404 28.7934 57.3074 28.7934C57.5262 28.7934 57.7078 28.7434 57.8524 28.6433C58.0008 28.5395 58.1046 28.4023 58.1639 28.2317H58.7089C58.6274 28.5246 58.4642 28.7638 58.2195 28.9492C57.9748 29.1308 57.6708 29.2217 57.3074 29.2217C57.0182 29.2217 56.7586 29.1568 56.5288 29.027C56.3026 28.8973 56.1246 28.7137 55.9948 28.4764C55.8651 28.2354 55.8002 27.9573 55.8002 27.6422C55.8002 27.327 55.8632 27.0508 55.9893 26.8135C56.1153 26.5762 56.2915 26.3945 56.5176 26.2684C56.7475 26.1387 57.0108 26.0738 57.3074 26.0738C57.5966 26.0738 57.8524 26.1368 58.0749 26.2629C58.2974 26.3889 58.4679 26.5632 58.5866 26.7857C58.7089 27.0044 58.7701 27.2528 58.7701 27.5309ZM58.2473 27.4253C58.2473 27.2325 58.2047 27.0675 58.1194 26.9303C58.0341 26.7894 57.9173 26.6837 57.769 26.6133C57.6244 26.5391 57.4631 26.502 57.2852 26.502C57.0293 26.502 56.8106 26.5836 56.6289 26.7467C56.4509 26.9099 56.3489 27.1361 56.323 27.4253H58.2473ZM60.7318 27.6366C60.7318 27.3252 60.7949 27.0526 60.9209 26.819C61.047 26.5817 61.2194 26.3982 61.4382 26.2684C61.6606 26.1387 61.9091 26.0738 62.1834 26.0738C62.4207 26.0738 62.6414 26.1294 62.8453 26.2406C63.0492 26.3481 63.2049 26.4909 63.3125 26.6689V25.056H63.8241V29.1716H63.3125V28.5988C63.2124 28.7805 63.064 28.9306 62.8675 29.0493C62.671 29.1642 62.4411 29.2217 62.1779 29.2217C61.9072 29.2217 61.6606 29.1549 61.4382 29.0215C61.2194 28.888 61.047 28.7007 60.9209 28.4597C60.7949 28.2187 60.7318 27.9444 60.7318 27.6366ZM63.3125 27.6422C63.3125 27.4123 63.2661 27.2121 63.1734 27.0415C63.0807 26.8709 62.9547 26.7412 62.7952 26.6522C62.6395 26.5595 62.4671 26.5131 62.278 26.5131C62.0889 26.5131 61.9165 26.5576 61.7607 26.6466C61.605 26.7356 61.4808 26.8654 61.3881 27.0359C61.2954 27.2065 61.2491 27.4067 61.2491 27.6366C61.2491 27.8702 61.2954 28.0741 61.3881 28.2484C61.4808 28.4189 61.605 28.5506 61.7607 28.6433C61.9165 28.7323 62.0889 28.7768 62.278 28.7768C62.4671 28.7768 62.6395 28.7323 62.7952 28.6433C62.9547 28.5506 63.0807 28.4189 63.1734 28.2484C63.2661 28.0741 63.3125 27.8721 63.3125 27.6422ZM67.4603 27.5309C67.4603 27.6273 67.4547 27.7293 67.4436 27.8368H65.0076C65.0261 28.1372 65.1281 28.3726 65.3134 28.5432C65.5025 28.71 65.7306 28.7934 65.9975 28.7934C66.2163 28.7934 66.398 28.7434 66.5426 28.6433C66.6909 28.5395 66.7947 28.4023 66.854 28.2317H67.3991C67.3175 28.5246 67.1544 28.7638 66.9097 28.9492C66.6649 29.1308 66.3609 29.2217 65.9975 29.2217C65.7083 29.2217 65.4488 29.1568 65.2189 29.027C64.9927 28.8973 64.8148 28.7137 64.685 28.4764C64.5552 28.2354 64.4903 27.9573 64.4903 27.6422C64.4903 27.327 64.5534 27.0508 64.6794 26.8135C64.8055 26.5762 64.9816 26.3945 65.2078 26.2684C65.4377 26.1387 65.7009 26.0738 65.9975 26.0738C66.2867 26.0738 66.5426 26.1368 66.765 26.2629C66.9875 26.3889 67.1581 26.5632 67.2767 26.7857C67.3991 27.0044 67.4603 27.2528 67.4603 27.5309ZM66.9375 27.4253C66.9375 27.2325 66.8948 27.0675 66.8095 26.9303C66.7243 26.7894 66.6075 26.6837 66.4592 26.6133C66.3146 26.5391 66.1533 26.502 65.9753 26.502C65.7195 26.502 65.5007 26.5836 65.319 26.7467C65.141 26.9099 65.0391 27.1361 65.0131 27.4253H66.9375ZM69.422 27.6422C69.422 27.327 69.485 27.0526 69.6111 26.819C69.7371 26.5817 69.9114 26.3982 70.1339 26.2684C70.36 26.1387 70.6177 26.0738 70.9069 26.0738C71.2814 26.0738 71.5892 26.1646 71.8302 26.3463C72.0749 26.528 72.2362 26.7801 72.314 27.1027H71.769C71.7171 26.9173 71.6151 26.7708 71.4631 26.6633C71.3148 26.5558 71.1294 26.502 70.9069 26.502C70.6177 26.502 70.3841 26.6021 70.2062 26.8024C70.0282 26.9989 69.9392 27.2788 69.9392 27.6422C69.9392 28.0092 70.0282 28.2929 70.2062 28.4931C70.3841 28.6933 70.6177 28.7934 70.9069 28.7934C71.1294 28.7934 71.3148 28.7415 71.4631 28.6377C71.6114 28.5339 71.7134 28.3856 71.769 28.1928H72.314C72.2325 28.5042 72.0693 28.7545 71.8246 28.9436C71.5799 29.129 71.274 29.2217 70.9069 29.2217C70.6177 29.2217 70.36 29.1568 70.1339 29.027C69.9114 28.8973 69.7371 28.7137 69.6111 28.4764C69.485 28.2391 69.422 27.961 69.422 27.6422ZM72.8003 27.6366C72.8003 27.3252 72.8633 27.0526 72.9894 26.819C73.1154 26.5817 73.2878 26.3982 73.5066 26.2684C73.7291 26.1387 73.9756 26.0738 74.2463 26.0738C74.5133 26.0738 74.745 26.1312 74.9415 26.2462C75.138 26.3611 75.2845 26.5057 75.3809 26.68V26.1238H75.8926V29.1716H75.3809V28.6043C75.2808 28.7823 75.1306 28.9306 74.9304 29.0493C74.7339 29.1642 74.504 29.2217 74.2407 29.2217C73.9701 29.2217 73.7254 29.1549 73.5066 29.0215C73.2878 28.888 73.1154 28.7007 72.9894 28.4597C72.8633 28.2187 72.8003 27.9444 72.8003 27.6366ZM75.3809 27.6422C75.3809 27.4123 75.3345 27.2121 75.2418 27.0415C75.1491 26.8709 75.0231 26.7412 74.8636 26.6522C74.7079 26.5595 74.5355 26.5131 74.3464 26.5131C74.1573 26.5131 73.9849 26.5576 73.8292 26.6466C73.6734 26.7356 73.5492 26.8654 73.4565 27.0359C73.3638 27.2065 73.3175 27.4067 73.3175 27.6366C73.3175 27.8702 73.3638 28.0741 73.4565 28.2484C73.5492 28.4189 73.6734 28.5506 73.8292 28.6433C73.9849 28.7323 74.1573 28.7768 74.3464 28.7768C74.5355 28.7768 74.7079 28.7323 74.8636 28.6433C75.0231 28.5506 75.1491 28.4189 75.2418 28.2484C75.3345 28.0741 75.3809 27.8721 75.3809 27.6422ZM77.254 26.6188C77.3429 26.4446 77.469 26.3092 77.6321 26.2128C77.799 26.1164 78.0011 26.0682 78.2384 26.0682V26.591H78.1049C77.5376 26.591 77.254 26.8988 77.254 27.5142V29.1716H76.7478V26.1238H77.254V26.6188ZM80.0796 26.0738C80.3428 26.0738 80.5727 26.1312 80.7692 26.2462C80.9694 26.3611 81.1177 26.5057 81.2141 26.68V26.1238H81.7258V29.2384C81.7258 29.5165 81.6665 29.763 81.5478 29.9781C81.4292 30.1968 81.2586 30.3674 81.0362 30.4898C80.8174 30.6121 80.5616 30.6733 80.2687 30.6733C79.8682 30.6733 79.5345 30.5787 79.2675 30.3896C79.0006 30.2005 78.843 29.9429 78.7948 29.6166H79.2954C79.351 29.802 79.4659 29.9503 79.6402 30.0615C79.8144 30.1764 80.0239 30.2339 80.2687 30.2339C80.5467 30.2339 80.7729 30.1468 80.9472 29.9725C81.1252 29.7982 81.2141 29.5535 81.2141 29.2384V28.5988C81.114 28.7768 80.9657 28.9251 80.7692 29.0437C80.5727 29.1624 80.3428 29.2217 80.0796 29.2217C79.8089 29.2217 79.5623 29.1549 79.3399 29.0215C79.1211 28.888 78.9487 28.7007 78.8226 28.4597C78.6965 28.2187 78.6335 27.9444 78.6335 27.6366C78.6335 27.3252 78.6965 27.0526 78.8226 26.819C78.9487 26.5817 79.1211 26.3982 79.3399 26.2684C79.5623 26.1387 79.8089 26.0738 80.0796 26.0738ZM81.2141 27.6422C81.2141 27.4123 81.1678 27.2121 81.0751 27.0415C80.9824 26.8709 80.8563 26.7412 80.6969 26.6522C80.5412 26.5595 80.3688 26.5131 80.1797 26.5131C79.9906 26.5131 79.8182 26.5576 79.6624 26.6466C79.5067 26.7356 79.3825 26.8654 79.2898 27.0359C79.1971 27.2065 79.1508 27.4067 79.1508 27.6366C79.1508 27.8702 79.1971 28.0741 79.2898 28.2484C79.3825 28.4189 79.5067 28.5506 79.6624 28.6433C79.8182 28.7323 79.9906 28.7768 80.1797 28.7768C80.3688 28.7768 80.5412 28.7323 80.6969 28.6433C80.8563 28.5506 80.9824 28.4189 81.0751 28.2484C81.1678 28.0741 81.2141 27.8721 81.2141 27.6422ZM82.392 27.6366C82.392 27.3252 82.455 27.0526 82.5811 26.819C82.7072 26.5817 82.8796 26.3982 83.0983 26.2684C83.3208 26.1387 83.5674 26.0738 83.838 26.0738C84.105 26.0738 84.3367 26.1312 84.5332 26.2462C84.7298 26.3611 84.8762 26.5057 84.9726 26.68V26.1238H85.4843V29.1716H84.9726V28.6043C84.8725 28.7823 84.7223 28.9306 84.5221 29.0493C84.3256 29.1642 84.0957 29.2217 83.8325 29.2217C83.5618 29.2217 83.3171 29.1549 83.0983 29.0215C82.8796 28.888 82.7072 28.7007 82.5811 28.4597C82.455 28.2187 82.392 27.9444 82.392 27.6366ZM84.9726 27.6422C84.9726 27.4123 84.9263 27.2121 84.8336 27.0415C84.7409 26.8709 84.6148 26.7412 84.4554 26.6522C84.2997 26.5595 84.1272 26.5131 83.9381 26.5131C83.7491 26.5131 83.5766 26.5576 83.4209 26.6466C83.2652 26.7356 83.141 26.8654 83.0483 27.0359C82.9556 27.2065 82.9092 27.4067 82.9092 27.6366C82.9092 27.8702 82.9556 28.0741 83.0483 28.2484C83.141 28.4189 83.2652 28.5506 83.4209 28.6433C83.5766 28.7323 83.7491 28.7768 83.9381 28.7768C84.1272 28.7768 84.2997 28.7323 84.4554 28.6433C84.6148 28.5506 84.7409 28.4189 84.8336 28.2484C84.9263 28.0741 84.9726 27.8721 84.9726 27.6422ZM87.4185 29.2217C87.185 29.2217 86.9755 29.1828 86.7901 29.1049C86.6047 29.0233 86.4582 28.9121 86.3507 28.7712C86.2432 28.6266 86.1839 28.4616 86.1727 28.2762H86.6955C86.7104 28.4282 86.7808 28.5524 86.9069 28.6488C87.0366 28.7452 87.2054 28.7934 87.413 28.7934C87.6058 28.7934 87.7578 28.7508 87.869 28.6655C87.9803 28.5802 88.0359 28.4727 88.0359 28.3429C88.0359 28.2095 87.9766 28.1112 87.8579 28.0482C87.7393 27.9814 87.5557 27.9165 87.3073 27.8535C87.0811 27.7942 86.8957 27.7349 86.7511 27.6755C86.6102 27.6125 86.4879 27.5217 86.3841 27.403C86.284 27.2807 86.2339 27.1212 86.2339 26.9247C86.2339 26.769 86.2803 26.6262 86.373 26.4965C86.4656 26.3667 86.5973 26.2647 86.7678 26.1906C86.9384 26.1127 87.133 26.0738 87.3518 26.0738C87.6892 26.0738 87.9617 26.1591 88.1694 26.3296C88.377 26.5002 88.4882 26.7338 88.5031 27.0304H87.997C87.9858 26.8709 87.921 26.743 87.8023 26.6466C87.6874 26.5502 87.5316 26.502 87.3351 26.502C87.1534 26.502 87.0088 26.541 86.9013 26.6188C86.7938 26.6967 86.74 26.7986 86.74 26.9247C86.74 27.0248 86.7715 27.1082 86.8346 27.175C86.9013 27.238 86.9829 27.2899 87.0793 27.3307C87.1794 27.3678 87.3166 27.4104 87.4909 27.4586C87.7096 27.518 87.8876 27.5773 88.0248 27.6366C88.162 27.6922 88.2788 27.7775 88.3752 27.8924C88.4753 28.0074 88.5272 28.1575 88.5309 28.3429C88.5309 28.5098 88.4845 28.66 88.3918 28.7934C88.2991 28.9269 88.1675 29.0326 87.997 29.1105C87.8301 29.1846 87.6373 29.2217 87.4185 29.2217Z" fill="#09031F"/>
</g>
<defs>
<clipPath id="clip0_123_295">
<rect width="118" height="31.5155" fill="white"/>
</clipPath>
<clipPath id="clip1_123_295">
<rect width="15.5244" height="6.88896" fill="white" transform="translate(4.04248 7.1709)"/>
</clipPath>
<clipPath id="clip2_123_295">
<rect width="0" height="0" fill="white" transform="translate(3.1792 2.00415)"/>
</clipPath>
</defs>
</svg>
